{
    "asset" : {
        "generator" : "Khronos glTF Blender I/O v3.4.50",
        "version" : "2.0"
    },
    "scene" : 0,
    "scenes" : [
        {
            "name" : "Scene",
            "nodes" : [
                2
            ]
        }
    ],
    "nodes" : [
        {
            "mesh" : 0,
            "name" : "Object_2",
            "translation" : [
                369.99853515625,
                228.77244567871094,
                52.9691047668457
            ]
        },
        {
            "children" : [
                0
            ],
            "name" : "Asus_G501VW.obj.cleaner.gles"
        },
        {
            "children" : [
                1
            ],
            "name" : "Sketchfab_model",
            "rotation" : [
                -0.70710688829422,
                0,
                0,
                0.7071066498756409
            ],
            "scale" : [
                0.016576213762164116,
                0.016576215624809265,
                0.016576215624809265
            ]
        }
    ],
    "materials" : [
        {
            "doubleSided" : true,
            "name" : "Asus_G501VW-skin",
            "pbrMetallicRoughness" : {
                "baseColorTexture" : {
                    "index" : 0
                },
                "metallicFactor" : 0,
                "roughnessFactor" : 0.6419588327407837
            }
        },
        {
            "doubleSided" : true,
            "name" : "Material.001",
            "pbrMetallicRoughness" : {
                "baseColorTexture" : {
                    "index" : 1
                },
                "metallicFactor" : 0,
                "roughnessFactor" : 0.5
            }
        },
        {
            "doubleSided" : true,
            "name" : "Material.002",
            "pbrMetallicRoughness" : {
                "baseColorFactor" : [
                    0.18326231837272644,
                    0.15186288952827454,
                    0.11107327789068222,
                    1
                ],
                "metallicFactor" : 0,
                "roughnessFactor" : 0.5
            }
        },
        {
            "doubleSided" : true,
            "name" : "Material.003",
            "pbrMetallicRoughness" : {
                "baseColorTexture" : {
                    "index" : 2
                },
                "metallicFactor" : 0,
                "roughnessFactor" : 0.5
            }
        },
        {
            "doubleSided" : true,
            "name" : "Material.004",
            "pbrMetallicRoughness" : {
                "baseColorFactor" : [
                    0,
                    0,
                    0,
                    1
                ],
                "metallicFactor" : 0,
                "roughnessFactor" : 0.5
            }
        }
    ],
    "meshes" : [
        {
            "name" : "Object_0",
            "primitives" : [
                {
                    "attributes" : {
                        "POSITION" : 0,
                        "TEXCOORD_0" : 1,
                        "NORMAL" : 2
                    },
                    "indices" : 3,
                    "material" : 0
                },
                {
                    "attributes" : {
                        "POSITION" : 4,
                        "TEXCOORD_0" : 5,
                        "NORMAL" : 6
                    },
                    "indices" : 7,
                    "material" : 1
                },
                {
                    "attributes" : {
                        "POSITION" : 8,
                        "TEXCOORD_0" : 9,
                        "NORMAL" : 10
                    },
                    "indices" : 11,
                    "material" : 2
                },
                {
                    "attributes" : {
                        "POSITION" : 12,
                        "TEXCOORD_0" : 13,
                        "NORMAL" : 14
                    },
                    "indices" : 15,
                    "material" : 3
                },
                {
                    "attributes" : {
                        "POSITION" : 16,
                        "TEXCOORD_0" : 17,
                        "NORMAL" : 18
                    },
                    "indices" : 19,
                    "material" : 4
                }
            ]
        }
    ],
    "textures" : [
        {
            "sampler" : 0,
            "source" : 0
        },
        {
            "sampler" : 0,
            "source" : 1
        },
        {
            "sampler" : 0,
            "source" : 2
        }
    ],
    "images" : [
        {
            "bufferView" : 4,
            "mimeType" : "image/jpeg",
            "name" : "Asus_G501VW-skin_baseColor"
        },
        {
            "bufferView" : 9,
            "mimeType" : "image/png",
            "name" : "Screen"
        },
        {
            "bufferView" : 18,
            "mimeType" : "image/jpeg",
            "name" : "we got your back"
        }
    ],
    "accessors" : [
        {
            "bufferView" : 0,
            "componentType" : 5126,
            "count" : 5625,
            "max" : [
                379.6287536621094,
                351.25439453125,
                434.7803649902344
            ],
            "min" : [
                -369.9985656738281,
                -228.77244567871094,
                -52.9691047668457
            ],
            "type" : "VEC3"
        },
        {
            "bufferView" : 1,
            "componentType" : 5126,
            "count" : 5625,
            "type" : "VEC2"
        },
        {
            "bufferView" : 2,
            "componentType" : 5126,
            "count" : 5625,
            "type" : "VEC3"
        },
        {
            "bufferView" : 3,
            "componentType" : 5123,
            "count" : 23802,
            "type" : "SCALAR"
        },
        {
            "bufferView" : 5,
            "componentType" : 5126,
            "count" : 6,
            "max" : [
                344.0340270996094,
                -151.28369140625,
                392.41192626953125
            ],
            "min" : [
                -334.0433349609375,
                -216.9790802001953,
                19.83480453491211
            ],
            "type" : "VEC3"
        },
        {
            "bufferView" : 6,
            "componentType" : 5126,
            "count" : 6,
            "type" : "VEC2"
        },
        {
            "bufferView" : 7,
            "componentType" : 5126,
            "count" : 6,
            "type" : "VEC3"
        },
        {
            "bufferView" : 8,
            "componentType" : 5123,
            "count" : 6,
            "type" : "SCALAR"
        },
        {
            "bufferView" : 10,
            "componentType" : 5126,
            "count" : 346,
            "max" : [
                379.6287536621094,
                351.25439453125,
                -30.930522918701172
            ],
            "min" : [
                -369.9985656738281,
                -139.0480499267578,
                -32.42052459716797
            ],
            "type" : "VEC3"
        },
        {
            "bufferView" : 11,
            "componentType" : 5126,
            "count" : 346,
            "type" : "VEC2"
        },
        {
            "bufferView" : 12,
            "componentType" : 5126,
            "count" : 346,
            "type" : "VEC3"
        },
        {
            "bufferView" : 13,
            "componentType" : 5123,
            "count" : 738,
            "type" : "SCALAR"
        },
        {
            "bufferView" : 14,
            "componentType" : 5126,
            "count" : 42,
            "max" : [
                69.39801025390625,
                -183.76292419433594,
                230.69056701660156
            ],
            "min" : [
                -56.168487548828125,
                -197.8671875,
                150.84873962402344
            ],
            "type" : "VEC3"
        },
        {
            "bufferView" : 15,
            "componentType" : 5126,
            "count" : 42,
            "type" : "VEC2"
        },
        {
            "bufferView" : 16,
            "componentType" : 5126,
            "count" : 42,
            "type" : "VEC3"
        },
        {
            "bufferView" : 17,
            "componentType" : 5123,
            "count" : 66,
            "type" : "SCALAR"
        },
        {
            "bufferView" : 19,
            "componentType" : 5126,
            "count" : 384,
            "max" : [
                377.8287048339844,
                -139.13365173339844,
                432.56170654296875
            ],
            "min" : [
                -368.19854736328125,
                -222.80067443847656,
                -28.85492515563965
            ],
            "type" : "VEC3"
        },
        {
            "bufferView" : 20,
            "componentType" : 5126,
            "count" : 384,
            "type" : "VEC2"
        },
        {
            "bufferView" : 21,
            "componentType" : 5126,
            "count" : 384,
            "type" : "VEC3"
        },
        {
            "bufferView" : 22,
            "componentType" : 5123,
            "count" : 864,
            "type" : "SCALAR"
        }
    ],
    "bufferViews" : [
        {
            "buffer" : 0,
            "byteLength" : 67500,
            "byteOffset" : 0,
            "target" : 34962
        },
        {
            "buffer" : 0,
            "byteLength" : 45000,
            "byteOffset" : 67500,
            "target" : 34962
        },
        {
            "buffer" : 0,
            "byteLength" : 67500,
            "byteOffset" : 112500,
            "target" : 34962
        },
        {
            "buffer" : 0,
            "byteLength" : 47604,
            "byteOffset" : 180000,
            "target" : 34963
        },
        {
            "buffer" : 0,
            "byteLength" : 1477137,
            "byteOffset" : 227604
        },
        {
            "buffer" : 0,
            "byteLength" : 72,
            "byteOffset" : 1704744,
            "target" : 34962
        },
        {
            "buffer" : 0,
            "byteLength" : 48,
            "byteOffset" : 1704816,
            "target" : 34962
        },
        {
            "buffer" : 0,
            "byteLength" : 72,
            "byteOffset" : 1704864,
            "target" : 34962
        },
        {
            "buffer" : 0,
            "byteLength" : 12,
            "byteOffset" : 1704936,
            "target" : 34963
        },
        {
            "buffer" : 0,
            "byteLength" : 239080,
            "byteOffset" : 1704948
        },
        {
            "buffer" : 0,
            "byteLength" : 4152,
            "byteOffset" : 1944028,
            "target" : 34962
        },
        {
            "buffer" : 0,
            "byteLength" : 2768,
            "byteOffset" : 1948180,
            "target" : 34962
        },
        {
            "buffer" : 0,
            "byteLength" : 4152,
            "byteOffset" : 1950948,
            "target" : 34962
        },
        {
            "buffer" : 0,
            "byteLength" : 1476,
            "byteOffset" : 1955100,
            "target" : 34963
        },
        {
            "buffer" : 0,
            "byteLength" : 504,
            "byteOffset" : 1956576,
            "target" : 34962
        },
        {
            "buffer" : 0,
            "byteLength" : 336,
            "byteOffset" : 1957080,
            "target" : 34962
        },
        {
            "buffer" : 0,
            "byteLength" : 504,
            "byteOffset" : 1957416,
            "target" : 34962
        },
        {
            "buffer" : 0,
            "byteLength" : 132,
            "byteOffset" : 1957920,
            "target" : 34963
        },
        {
            "buffer" : 0,
            "byteLength" : 17582,
            "byteOffset" : 1958052
        },
        {
            "buffer" : 0,
            "byteLength" : 4608,
            "byteOffset" : 1975636,
            "target" : 34962
        },
        {
            "buffer" : 0,
            "byteLength" : 3072,
            "byteOffset" : 1980244,
            "target" : 34962
        },
        {
            "buffer" : 0,
            "byteLength" : 4608,
            "byteOffset" : 1983316,
            "target" : 34962
        },
        {
            "buffer" : 0,
            "byteLength" : 1728,
            "byteOffset" : 1987924,
            "target" : 34963
        }
    ],
    "samplers" : [
        {
            "magFilter" : 9729,
            "minFilter" : 9987
        }
    ],
    "buffers" : [
        {
            "byteLength" : 1989652,
            "uri" : "data:application/octet-stream;base64,"
        }
    ]
}
